    <svg
      width="51"
      height="20"
      viewBox="0 0 51 20"
      xmlns="http://www.w3.org/2000/svg"
    >
      <path
        d="M0.130682 10.3636C0.130682 8.57386 0.362689 6.9285 0.826705 5.42756C1.29545 3.92187 1.96307 2.53693 2.82955 1.27273H4.30682C3.96591 1.74148 3.64631 2.31913 3.34801 3.00568C3.05445 3.6875 2.7964 4.43797 2.57386 5.2571C2.35133 6.0715 2.17614 6.9143 2.0483 7.78551C1.92519 8.65672 1.86364 9.5161 1.86364 10.3636C1.86364 11.4905 1.97254 12.634 2.19034 13.794C2.40814 14.9541 2.7017 16.0312 3.07102 17.0256C3.44034 18.0199 3.85227 18.8295 4.30682 19.4545H2.82955C1.96307 18.1903 1.29545 16.8078 0.826705 15.3068C0.362689 13.8011 0.130682 12.1534 0.130682 10.3636ZM9.22337 4.11364L10.9563 0.818181H12.9165L10.7006 4.11364H9.22337ZM20.1675 7.24C19.2275 7.24 18.4875 7.98 18.4875 8.9C18.4875 9.84 19.2275 10.58 20.1675 10.58C21.0875 10.58 21.8475 9.84 21.8475 8.9C21.8475 7.98 21.0875 7.24 20.1675 7.24ZM26.0398 13.7159H27.8295C27.8674 14.2083 28.09 14.5824 28.4972 14.8381C28.9091 15.0938 29.4441 15.2216 30.1023 15.2216C30.7746 15.2216 31.3499 15.0843 31.8281 14.8097C32.3063 14.5303 32.5455 14.0805 32.5455 13.4602C32.5455 13.0956 32.4555 12.7784 32.2756 12.5085C32.0956 12.2339 31.8423 12.0208 31.5156 11.8693C31.1889 11.7178 30.803 11.642 30.358 11.642H28.483V10.1364H30.358C31.0256 10.1364 31.518 9.98485 31.8352 9.68182C32.1572 9.37879 32.3182 9 32.3182 8.54545C32.3182 8.05776 32.1454 7.66714 31.7997 7.37358C31.4541 7.07528 30.964 6.92614 30.3295 6.92614C29.6903 6.92614 29.1577 7.07055 28.7315 7.35938C28.3054 7.64347 28.0805 8.01042 28.0568 8.46023H26.2955C26.3144 7.87311 26.4943 7.35464 26.8352 6.90483C27.1761 6.45028 27.6402 6.09517 28.2273 5.83949C28.8144 5.57907 29.4867 5.44886 30.2443 5.44886C31.0114 5.44886 31.6766 5.58381 32.2401 5.85369C32.8082 6.11884 33.2462 6.48106 33.554 6.94034C33.8665 7.39489 34.0227 7.91098 34.0227 8.48864C34.0227 9.10417 33.8499 9.60133 33.5043 9.98011C33.1586 10.3589 32.7254 10.6288 32.2045 10.7898V10.9034C32.6165 10.9318 32.974 11.0644 33.277 11.3011C33.5848 11.5331 33.8239 11.8385 33.9943 12.2173C34.1648 12.5914 34.25 13.0057 34.25 13.4602C34.25 14.1231 34.0724 14.7008 33.7173 15.1932C33.3622 15.6809 32.8745 16.0597 32.2543 16.3295C31.634 16.5947 30.9261 16.7273 30.1307 16.7273C29.3589 16.7273 28.6676 16.6018 28.0568 16.3509C27.446 16.0952 26.9607 15.7424 26.6009 15.2926C26.2457 14.8381 26.0587 14.3125 26.0398 13.7159ZM40.0503 7.24C39.1103 7.24 38.3703 7.98 38.3703 8.9C38.3703 9.84 39.1103 10.58 40.0503 10.58C40.9703 10.58 41.7303 9.84 41.7303 8.9C41.7303 7.98 40.9703 7.24 40.0503 7.24ZM50.1839 10.3636C50.1839 12.1534 49.9496 13.8011 49.4808 15.3068C49.0168 16.8078 48.3516 18.1903 47.4851 19.4545H46.0078C46.3487 18.9858 46.666 18.4081 46.9595 17.7216C47.2578 17.0398 47.5182 16.2917 47.7408 15.4773C47.9633 14.6581 48.1361 13.813 48.2592 12.9418C48.3871 12.0658 48.451 11.2064 48.451 10.3636C48.451 9.23674 48.3421 8.09328 48.1243 6.93324C47.9065 5.7732 47.6129 4.69602 47.2436 3.7017C46.8743 2.70739 46.4624 1.89773 46.0078 1.27273H47.4851C48.3516 2.53693 49.0168 3.92187 49.4808 5.42756C49.9496 6.9285 50.1839 8.57386 50.1839 10.3636Z"
        fill="white"
      />
    </svg>