<svg width="62" height="20" viewBox="0 0 62 20" xmlns="http://www.w3.org/2000/svg">
<path d="M0.145391 9.1256C0.145391 7.33583 0.377399 5.69047 0.841414 4.18952C1.31016 2.68384 1.97778 1.2989 2.84426 0.0346949H4.32153C3.98062 0.503445 3.66102 1.0811 3.36272 1.76765C3.06916 2.44947 2.81111 3.19994 2.58857 4.01907C2.36604 4.83346 2.19085 5.67627 2.06301 6.54748C1.9399 7.41869 1.87835 8.27807 1.87835 9.1256C1.87835 10.2525 1.98725 11.396 2.20505 12.556C2.42285 13.716 2.71641 14.7932 3.08573 15.7875C3.45505 16.7819 3.86698 17.5915 4.32153 18.2165H2.84426C1.97778 16.9523 1.31016 15.5697 0.841414 14.0688C0.377399 12.5631 0.145391 10.9154 0.145391 9.1256ZM10.8008 15.462C10.4941 15.462 10.1941 15.4353 9.9008 15.382C9.6208 15.342 9.39414 15.2953 9.2208 15.242V13.822C9.35414 13.8753 9.5408 13.922 9.7808 13.962C10.0341 14.002 10.2875 14.022 10.5408 14.022C11.1675 14.022 11.6741 13.8886 12.0608 13.622C12.4608 13.3553 12.7541 12.9686 12.9408 12.462C13.1275 11.942 13.2208 11.3153 13.2208 10.582C13.2208 9.4353 13.0008 8.62197 12.5608 8.14197C12.1208 7.66197 11.4475 7.42197 10.5408 7.42197C9.7408 7.42197 9.1208 7.60197 8.6808 7.96197C8.25414 8.30863 8.0408 8.8353 8.0408 9.54197C8.0408 10.102 8.16747 10.5353 8.4208 10.842C8.68747 11.1486 9.02747 11.302 9.4408 11.302C9.50747 11.302 9.59414 11.2953 9.7008 11.282C9.80747 11.2686 9.90747 11.2486 10.0008 11.222L10.2808 12.562C10.1475 12.6553 9.97414 12.7286 9.7608 12.782C9.5608 12.822 9.34747 12.842 9.1208 12.842C8.2008 12.842 7.5008 12.5353 7.0208 11.922C6.55414 11.2953 6.3208 10.5086 6.3208 9.56197C6.3208 8.3753 6.68747 7.48197 7.4208 6.88197C8.16747 6.26863 9.20747 5.96197 10.5408 5.96197C12.1275 5.96197 13.2675 6.36863 13.9608 7.18197C14.6675 7.98197 15.0208 9.0953 15.0208 10.522C15.0208 11.4553 14.8741 12.2953 14.5808 13.042C14.3008 13.7886 13.8475 14.382 13.2208 14.822C12.6075 15.2486 11.8008 15.462 10.8008 15.462ZM24.199 6.36992L21.5286 5.6881L17.0967 3.98356V2.27901L24.199 5.17674V6.36992ZM17.0967 9.4381V7.73356L21.5286 6.05742L24.199 5.3472V6.51197L17.0967 9.4381ZM36.6436 9.88197C36.6436 10.7086 36.5303 11.462 36.3036 12.142C36.0903 12.822 35.7636 13.4086 35.3236 13.902C34.8836 14.382 34.3436 14.7553 33.7036 15.022C33.0636 15.2753 32.3236 15.402 31.4836 15.402C30.6169 15.402 29.8569 15.2686 29.2036 15.002C28.5636 14.7353 28.0303 14.362 27.6036 13.882C27.1769 13.3886 26.8569 12.8086 26.6436 12.142C26.4303 11.462 26.3236 10.7086 26.3236 9.88197H28.1836C28.1836 10.722 28.2969 11.4486 28.5236 12.062C28.7636 12.6753 29.1303 13.1486 29.6236 13.482C30.1169 13.8153 30.7369 13.982 31.4836 13.982C32.2436 13.982 32.8636 13.8153 33.3436 13.482C33.8369 13.1486 34.1969 12.6753 34.4236 12.062C34.6636 11.4486 34.7836 10.722 34.7836 9.88197H36.6436ZM38.7569 6.36992V5.17674L45.8592 2.27901V3.98356L41.4558 5.6881L38.7569 6.36992ZM45.8592 9.4381L38.7569 6.51197V5.3472L41.4558 6.05742L45.8592 7.73356V9.4381ZM51.9174 9.1256C51.9174 10.9154 51.683 12.5631 51.2143 14.0688C50.7503 15.5697 50.085 16.9523 49.2185 18.2165H47.7413C48.0822 17.7478 48.3994 17.1701 48.693 16.4836C48.9913 15.8017 49.2517 15.0536 49.4742 14.2392C49.6968 13.4201 49.8696 12.5749 49.9927 11.7037C50.1205 10.8278 50.1845 9.96841 50.1845 9.1256C50.1845 7.99871 50.0756 6.85524 49.8577 5.69521C49.6399 4.53517 49.3464 3.45799 48.9771 2.46367C48.6077 1.46935 48.1958 0.659695 47.7413 0.0346949H49.2185C50.085 1.2989 50.7503 2.68384 51.2143 4.18952C51.683 5.69047 51.9174 7.33583 51.9174 9.1256ZM55.2099 19.862L54.8499 18.222C55.6499 18.1153 56.3832 17.962 57.0499 17.762C57.7299 17.5753 58.3099 17.302 58.7899 16.942C59.2832 16.582 59.6632 16.1086 59.9299 15.522C60.1965 14.9353 60.3299 14.202 60.3299 13.322C60.3299 12.9086 60.2899 12.5153 60.2099 12.142C60.1299 11.7553 60.0099 11.4153 59.8499 11.122C59.6899 10.8286 59.4965 10.5953 59.2699 10.422C59.0565 10.2486 58.8099 10.162 58.5299 10.162C58.2232 10.162 57.9432 10.282 57.6899 10.522C57.4499 10.7486 57.2565 11.042 57.1099 11.402C56.9765 11.762 56.9099 12.122 56.9099 12.482C56.9099 12.762 56.9632 13.0086 57.0699 13.222C57.1899 13.422 57.3832 13.5753 57.6499 13.682C57.9165 13.7886 58.2632 13.842 58.6899 13.842C59.0765 13.842 59.4632 13.802 59.8499 13.722C60.2499 13.642 60.5899 13.5353 60.8699 13.402L60.9499 14.802C60.6299 15.0286 60.2499 15.1886 59.8099 15.282C59.3832 15.3753 58.9499 15.422 58.5099 15.422C58.0032 15.422 57.5499 15.3686 57.1499 15.262C56.7632 15.1553 56.4299 15.002 56.1499 14.802C55.8832 14.5886 55.6765 14.322 55.5299 14.002C55.3965 13.682 55.3299 13.3086 55.3299 12.882C55.3299 12.3753 55.4099 11.8686 55.5699 11.362C55.7299 10.842 55.9565 10.3686 56.2499 9.94197C56.5432 9.5153 56.8965 9.1753 57.3099 8.92197C57.7232 8.6553 58.1832 8.52197 58.6899 8.52197C59.2232 8.52197 59.6899 8.66197 60.0899 8.94197C60.4899 9.20864 60.8232 9.5753 61.0899 10.042C61.3565 10.5086 61.5565 11.0353 61.6899 11.622C61.8232 12.2086 61.8899 12.8153 61.8899 13.442C61.8899 14.682 61.6365 15.7486 61.1299 16.642C60.6365 17.5486 59.8899 18.2686 58.8899 18.802C57.9032 19.3353 56.6765 19.6886 55.2099 19.862Z" fill="white"/>
</svg>
