<svg width="68" height="19" viewBox="0 0 68 19" xmlns="http://www.w3.org/2000/svg">
<path d="M0.130682 9.72727C0.130682 7.9375 0.362689 6.29214 0.826705 4.79119C1.29545 3.28551 1.96307 1.90057 2.82955 0.636363H4.30682C3.96591 1.10511 3.64631 1.68277 3.34801 2.36932C3.05445 3.05114 2.7964 3.80161 2.57386 4.62074C2.35133 5.43513 2.17614 6.27794 2.0483 7.14915C1.92519 8.02036 1.86364 8.87973 1.86364 9.72727C1.86364 10.8542 1.97254 11.9976 2.19034 13.1577C2.40814 14.3177 2.7017 15.3949 3.07102 16.3892C3.44034 17.3835 3.85227 18.1932 4.30682 18.8182H2.82955C1.96307 17.554 1.29545 16.1714 0.826705 14.6705C0.362689 13.1648 0.130682 11.517 0.130682 9.72727ZM15.4734 17.2273L8.17223 9.92614C7.58984 9.34375 7.20159 8.66667 7.00746 7.89489C6.81806 7.12311 6.82043 6.35606 7.01456 5.59375C7.20869 4.8267 7.59458 4.15909 8.17223 3.59091C8.76409 3.00852 9.4388 2.62263 10.1964 2.43324C10.9587 2.23911 11.7186 2.23911 12.4762 2.43324C13.2385 2.62737 13.9156 3.01326 14.5075 3.59091L15.4734 4.52841L16.4393 3.59091C17.0359 3.01326 17.713 2.62737 18.4705 2.43324C19.2281 2.23911 19.9857 2.23911 20.7433 2.43324C21.5056 2.62263 22.1826 3.00852 22.7745 3.59091C23.3522 4.15909 23.738 4.8267 23.9322 5.59375C24.1263 6.35606 24.1263 7.12311 23.9322 7.89489C23.7428 8.66667 23.3569 9.34375 22.7745 9.92614L15.4734 17.2273ZM28.2663 6.09091H30.1697C29.7105 6.87216 29.3601 7.56818 29.1186 8.17898C28.8819 8.78977 28.7209 9.36742 28.6357 9.91193C28.5504 10.4564 28.5078 11.0199 28.5078 11.6023C28.5078 12.8807 28.709 13.8726 29.1115 14.5781C29.5187 15.2836 30.075 15.6364 30.7805 15.6364C31.4008 15.6364 31.8956 15.3617 32.2649 14.8125C32.639 14.2585 32.826 13.4536 32.826 12.3977V9.13068H34.1612V12.3977C34.1612 13.4252 34.0239 14.2964 33.7493 15.0114C33.4794 15.7263 33.0817 16.2708 32.5561 16.6449C32.0305 17.0142 31.3913 17.1989 30.6385 17.1989C29.8194 17.1989 29.1186 16.9716 28.5362 16.517C27.9586 16.0625 27.5159 15.4091 27.2081 14.5568C26.9003 13.6998 26.7464 12.6676 26.7464 11.4602C26.7464 10.4754 26.8719 9.53788 27.1229 8.64773C27.3738 7.75758 27.755 6.9053 28.2663 6.09091ZM37.4425 6.09091H39.3459C39.8572 6.9053 40.2384 7.75758 40.4893 8.64773C40.7403 9.53788 40.8658 10.4754 40.8658 11.4602C40.8658 12.6676 40.7119 13.6998 40.4041 14.5568C40.0964 15.4091 39.6513 16.0625 39.0689 16.517C38.4912 16.9716 37.7929 17.1989 36.9737 17.1989C36.2209 17.1989 35.5817 17.0142 35.0561 16.6449C34.5305 16.2708 34.1304 15.7263 33.8558 15.0114C33.5859 14.2964 33.451 13.4252 33.451 12.3977V9.13068H34.7862V12.3977C34.7862 13.4536 34.9732 14.2585 35.3473 14.8125C35.7214 15.3617 36.2161 15.6364 36.8317 15.6364C37.3052 15.6364 37.71 15.4777 38.0462 15.1605C38.3871 14.8433 38.6475 14.384 38.8274 13.7827C39.0121 13.1813 39.1044 12.4545 39.1044 11.6023C39.1044 11.0199 39.0618 10.4564 38.9766 9.91193C38.8913 9.36742 38.728 8.78977 38.4865 8.17898C38.2498 7.56818 37.9018 6.87216 37.4425 6.09091ZM52.1531 17.2273L44.8519 9.92614C44.2695 9.34375 43.8813 8.66667 43.6871 7.89489C43.4978 7.12311 43.5001 6.35606 43.6942 5.59375C43.8884 4.8267 44.2743 4.15909 44.8519 3.59091C45.4438 3.00852 46.1185 2.62263 46.8761 2.43324C47.6384 2.23911 48.3983 2.23911 49.1559 2.43324C49.9182 2.62737 50.5953 3.01326 51.1871 3.59091L52.1531 4.52841L53.119 3.59091C53.7156 3.01326 54.3926 2.62737 55.1502 2.43324C55.9078 2.23911 56.6654 2.23911 57.4229 2.43324C58.1853 2.62263 58.8623 3.00852 59.4542 3.59091C60.0318 4.15909 60.4177 4.8267 60.6119 5.59375C60.806 6.35606 60.806 7.12311 60.6119 7.89489C60.4225 8.66667 60.0366 9.34375 59.4542 9.92614L52.1531 17.2273ZM67.4886 9.72727C67.4886 11.517 67.2543 13.1648 66.7855 14.6705C66.3215 16.1714 65.6563 17.554 64.7898 18.8182H63.3125C63.6534 18.3494 63.9706 17.7718 64.2642 17.0852C64.5625 16.4034 64.8229 15.6553 65.0455 14.8409C65.268 14.0218 65.4408 13.1766 65.5639 12.3054C65.6918 11.4295 65.7557 10.5701 65.7557 9.72727C65.7557 8.60038 65.6468 7.45691 65.429 6.29688C65.2112 5.13684 64.9176 4.05966 64.5483 3.06534C64.179 2.07102 63.767 1.26136 63.3125 0.636363H64.7898C65.6563 1.90057 66.3215 3.28551 66.7855 4.79119C67.2543 6.29214 67.4886 7.9375 67.4886 9.72727Z" fill="white"/>
</svg>
