<svg width="94" height="22" viewBox="0 0 94 22" xmlns="http://www.w3.org/2000/svg">
<path d="M0.44 5.56L1.18 7.34C2.78 6.7 7.86 4.5 11.16 4.5C13.86 4.5 15.4 6.16 15.4 8.26C15.4 12.34 10.72 13.94 5.5 14.08L6.22 15.74C12.38 15.38 17.14 13.08 17.14 8.28C17.14 4.94 14.5 3.02 11.2 3.02C8.28 3.02 4.34 4.46 2.66 5C1.9 5.22 1.18 5.44 0.44 5.56ZM18.6875 20.1761C18.2045 20.1761 17.7689 20.0696 17.3807 19.8565C16.9877 19.6435 16.6776 19.3546 16.4503 18.9901C16.2183 18.6255 16.1023 18.2159 16.1023 17.7614C16.1023 17.3068 16.2183 16.8902 16.4503 16.5114C16.6776 16.1326 16.9877 15.8295 17.3807 15.6023C17.7689 15.375 18.2045 15.2614 18.6875 15.2614C19.1705 15.2614 19.6061 15.375 19.9943 15.6023C20.3778 15.8295 20.6832 16.1326 20.9105 16.5114C21.133 16.8902 21.2443 17.3068 21.2443 17.7614C21.2443 18.2159 21.133 18.6255 20.9105 18.9901C20.6832 19.3546 20.3778 19.6435 19.9943 19.8565C19.6061 20.0696 19.1705 20.1761 18.6875 20.1761ZM18.6875 19.0966C19.0852 19.0966 19.4119 18.9593 19.6676 18.6847C19.9233 18.41 20.0511 18.1023 20.0511 17.7614C20.0511 17.4063 19.9233 17.0843 19.6676 16.7955C19.4119 16.5114 19.0852 16.3693 18.6875 16.3693C18.2898 16.3693 17.9631 16.5114 17.7074 16.7955C17.4517 17.0843 17.3239 17.4063 17.3239 17.7614C17.3239 18.1023 17.4517 18.41 17.7074 18.6847C17.9631 18.9593 18.2898 19.0966 18.6875 19.0966ZM33.565 16.68C37.965 16.68 41.485 13.16 41.485 8.76C41.485 4.36 37.965 0.84 33.565 0.84C29.165 0.84 25.645 4.36 25.645 8.76C25.645 13.16 29.165 16.68 33.565 16.68ZM26.485 8.76C26.485 4.82 29.625 1.68 33.565 1.68V8.76H26.485ZM35.1097 20.6023L36.1325 19.1818L34.5984 18.7273L34.854 17.9034L36.3881 18.4716L36.3313 16.7102H37.1836L37.1268 18.5L38.6325 17.9602L38.8881 18.7841L37.3256 19.2386L38.32 20.6307L37.6381 21.142L36.7006 19.6648L35.7915 21.0852L35.1097 20.6023ZM51.5586 16V17.5625H42.4677V16H51.5586ZM43.8686 20.3466V16.5966H45.3175V20.3466H43.8686ZM43.9538 19.1534V17.7898H47.7607V19.1534H43.9538ZM60.4791 16.68C64.8791 16.68 68.3991 13.16 68.3991 8.76C68.3991 4.36 64.8791 0.84 60.4791 0.84C56.0791 0.84 52.5591 4.36 52.5591 8.76C52.5591 13.16 56.0791 16.68 60.4791 16.68ZM53.3991 8.76C53.3991 4.82 56.5391 1.68 60.4791 1.68V8.76H53.3991ZM65.5181 19.3523L63.6431 18.9261L60.5465 17.7898V16.7102L65.5181 18.5852V19.3523ZM60.5465 21.3409V20.233L63.6431 19.1534L65.5181 18.6989V19.4375L60.5465 21.3409ZM67.9897 18.4432L66.7965 21.3125H65.6033L67.6488 16.7102H68.4727L67.9897 18.4432ZM69.4102 21.3125L68.2454 18.4432L67.7624 16.7102H68.5863L70.6033 21.3125H69.4102ZM68.6999 21.142L67.7908 20.2045L71.4272 16.5682L72.3363 17.5057L68.6999 21.142ZM71.3988 21.1705L67.7908 17.4773L68.7283 16.5398L72.3079 20.233L71.3988 21.1705ZM76.4752 5.56L77.2152 7.34C78.8152 6.7 83.8952 4.5 87.1952 4.5C89.8952 4.5 91.4352 6.16 91.4352 8.26C91.4352 12.34 86.7552 13.94 81.5352 14.08L82.2552 15.74C88.4152 15.38 93.1752 13.08 93.1752 8.28C93.1752 4.94 90.5352 3.02 87.2352 3.02C84.3152 3.02 80.3752 4.46 78.6952 5C77.9352 5.22 77.2152 5.44 76.4752 5.56Z" fill="white"/>
</svg>
