<svg width="52" height="20" viewBox="0 0 52 20" xmlns="http://www.w3.org/2000/svg">
<path d="M6.40281 17.24C5.32281 17.24 4.34948 17.0333 3.48281 16.62C2.62948 16.2067 1.95615 15.6067 1.46281 14.82C0.969479 14.02 0.722813 13.0467 0.722813 11.9C0.722813 10.8867 0.902813 10.02 1.26281 9.3C1.63615 8.56667 2.14948 7.97333 2.80281 7.52H0.722813V5.98H7.84281C8.56281 5.98 9.06948 5.94667 9.36281 5.88C9.65615 5.81333 9.87615 5.72667 10.0228 5.62C10.1961 5.48667 10.3095 5.34 10.3628 5.18C10.4295 5.00667 10.4628 4.82667 10.4628 4.64C10.4628 3.78667 10.0295 2.92667 9.16281 2.06L10.4628 1.2C11.0895 1.89333 11.5161 2.52 11.7428 3.08C11.9695 3.62667 12.0828 4.18667 12.0828 4.76C12.0828 5.01333 12.0295 5.32667 11.9228 5.7C11.8161 6.06 11.5961 6.38667 11.2628 6.68C11.0895 6.84 10.8828 6.98 10.6428 7.1C10.4161 7.22 10.1695 7.31333 9.90281 7.38C10.5961 7.86 11.1295 8.46 11.5028 9.18C11.8895 9.9 12.0828 10.8067 12.0828 11.9C12.0828 12.94 11.8561 13.86 11.4028 14.66C10.9495 15.46 10.2961 16.0933 9.44281 16.56C8.60281 17.0133 7.58948 17.24 6.40281 17.24ZM6.42281 15.62C7.32948 15.62 8.07615 15.44 8.66281 15.08C9.26281 14.72 9.70948 14.2333 10.0028 13.62C10.2961 12.9933 10.4428 12.3067 10.4428 11.56C10.4428 10.6933 10.2628 9.96 9.90281 9.36C9.55615 8.74667 9.08281 8.28 8.48281 7.96C7.88281 7.64 7.20281 7.48 6.44281 7.48C5.20281 7.48 4.20948 7.85333 3.46281 8.6C2.72948 9.34667 2.36281 10.3333 2.36281 11.56C2.36281 12.8533 2.72948 13.8533 3.46281 14.56C4.20948 15.2667 5.19615 15.62 6.42281 15.62ZM6.40281 12.66C6.08281 12.66 5.80948 12.5467 5.58281 12.32C5.35615 12.0933 5.24281 11.8133 5.24281 11.48C5.24281 11.1467 5.35615 10.8667 5.58281 10.64C5.80948 10.4133 6.08281 10.3 6.40281 10.3C6.73615 10.3 7.00948 10.4133 7.22281 10.64C7.44948 10.8667 7.56281 11.1467 7.56281 11.48C7.56281 11.8133 7.44948 12.0933 7.22281 12.32C7.00948 12.5467 6.73615 12.66 6.40281 12.66ZM13.8102 16.66V18H32.0102V16.66H13.8102ZM14.3102 4.4V5.76H31.5102V4.4H14.3102ZM16.5902 10.96V17.34H17.9502V12.26H20.3302V17.34H21.7302V12.26H24.1102V17.34H25.5102V12.26H27.9102V17.34H29.3302V10.96H16.5902ZM17.1702 0.859999C18.0702 2 19.0302 3.6 19.4502 4.64L20.7902 3.94C20.3502 2.94 19.3702 1.44 18.4502 0.299999L17.1702 0.859999ZM27.3902 0.18C26.8302 1.36 25.7702 3 24.9302 4.02L26.2102 4.5C27.0702 3.52 28.1102 2 28.9502 0.679999L27.3902 0.18ZM19.8302 4.8C18.4902 7.7 16.1102 10.18 13.4102 11.72C13.7702 11.98 14.3502 12.54 14.5902 12.84C17.2702 11.12 19.8102 8.44 21.3102 5.26L19.8302 4.8ZM25.7302 4.82L24.4302 5.32C25.9302 8.3 28.5902 11.14 31.2702 12.6C31.5102 12.22 31.9902 11.66 32.3302 11.38C29.7102 10.12 27.0502 7.48 25.7302 4.82ZM39.4302 17.24C38.3502 17.24 37.3768 17.0333 36.5102 16.62C35.6568 16.2067 34.9835 15.6067 34.4902 14.82C33.9968 14.02 33.7502 13.0467 33.7502 11.9C33.7502 10.8867 33.9302 10.02 34.2902 9.3C34.6635 8.56667 35.1768 7.97333 35.8302 7.52H33.7502V5.98H40.8702C41.5902 5.98 42.0968 5.94667 42.3902 5.88C42.6835 5.81333 42.9035 5.72667 43.0502 5.62C43.2235 5.48667 43.3368 5.34 43.3902 5.18C43.4568 5.00667 43.4902 4.82667 43.4902 4.64C43.4902 3.78667 43.0568 2.92667 42.1902 2.06L43.4902 1.2C44.1168 1.89333 44.5435 2.52 44.7702 3.08C44.9968 3.62667 45.1102 4.18667 45.1102 4.76C45.1102 5.01333 45.0568 5.32667 44.9502 5.7C44.8435 6.06 44.6235 6.38667 44.2902 6.68C44.1168 6.84 43.9102 6.98 43.6702 7.1C43.4435 7.22 43.1968 7.31333 42.9302 7.38C43.6235 7.86 44.1568 8.46 44.5302 9.18C44.9168 9.9 45.1102 10.8067 45.1102 11.9C45.1102 12.94 44.8835 13.86 44.4302 14.66C43.9768 15.46 43.3235 16.0933 42.4702 16.56C41.6302 17.0133 40.6168 17.24 39.4302 17.24ZM39.4502 15.62C40.3568 15.62 41.1035 15.44 41.6902 15.08C42.2902 14.72 42.7368 14.2333 43.0302 13.62C43.3235 12.9933 43.4702 12.3067 43.4702 11.56C43.4702 10.6933 43.2902 9.96 42.9302 9.36C42.5835 8.74667 42.1102 8.28 41.5102 7.96C40.9102 7.64 40.2302 7.48 39.4702 7.48C38.2302 7.48 37.2368 7.85333 36.4902 8.6C35.7568 9.34667 35.3902 10.3333 35.3902 11.56C35.3902 12.8533 35.7568 13.8533 36.4902 14.56C37.2368 15.2667 38.2235 15.62 39.4502 15.62ZM39.4302 12.66C39.1102 12.66 38.8368 12.5467 38.6102 12.32C38.3835 12.0933 38.2702 11.8133 38.2702 11.48C38.2702 11.1467 38.3835 10.8667 38.6102 10.64C38.8368 10.4133 39.1102 10.3 39.4302 10.3C39.7635 10.3 40.0368 10.4133 40.2502 10.64C40.4768 10.8667 40.5902 11.1467 40.5902 11.48C40.5902 11.8133 40.4768 12.0933 40.2502 12.32C40.0368 12.5467 39.7635 12.66 39.4302 12.66ZM51.0511 10.8636C51.0511 12.6534 50.8168 14.3011 50.348 15.8068C49.884 17.3078 49.2188 18.6903 48.3523 19.9545H46.875C47.2159 19.4858 47.5331 18.9081 47.8267 18.2216C48.125 17.5398 48.3854 16.7917 48.608 15.9773C48.8305 15.1581 49.0033 14.313 49.1264 13.4418C49.2543 12.5658 49.3182 11.7064 49.3182 10.8636C49.3182 9.73674 49.2093 8.59328 48.9915 7.43324C48.7737 6.2732 48.4801 5.19602 48.1108 4.2017C47.7415 3.20739 47.3295 2.39773 46.875 1.77273H48.3523C49.2188 3.03693 49.884 4.42187 50.348 5.92756C50.8168 7.4285 51.0511 9.07386 51.0511 10.8636Z" fill="black"/>
</svg>
